<!-- Generated by IcoMoon.io -->
<svg version="1.1" xmlns="http://www.w3.org/2000/svg" width="32" height="32" viewBox="0 0 32 32">
<title>glass</title>
<path d="M30.786 26.636c0.531 0.531 0.859 1.264 0.859 2.074 0 1.62-1.313 2.933-2.933 2.933-0.81 0-1.544-0.328-2.075-0.86l-8.597-8.596c-1.701 1.026-3.755 1.633-5.95 1.634h-0c-6.48 0-11.733-5.253-11.733-11.733s5.253-11.733 11.733-11.733c6.48 0 11.733 5.253 11.733 11.733v0c-0.001 2.196-0.608 4.249-1.663 6.003l0.029-0.053 8.597 8.597zM12.089 3.287c-4.86 0.001-8.8 3.941-8.8 8.801s3.94 8.801 8.801 8.801c0 0 0.001 0 0.001 0h-0c4.86-0 8.799-3.94 8.799-8.8s-3.94-8.8-8.8-8.8c-0 0-0.001 0-0.001 0h0z"></path>
</svg>
