<!-- Generated by IcoMoon.io -->
<svg version="1.1" xmlns="http://www.w3.org/2000/svg" width="38" height="32" viewBox="0 0 38 32">
<title>cart</title>
<path d="M37.815 7.814h0.002l-5.28 11.733c-0.266 0.582-0.824 0.988-1.481 1.034l-0.006 0-15.206 1.013 0.879 2.509h16.557c1.944 0 3.52 1.576 3.52 3.52s-1.576 3.52-3.52 3.52c-1.943 0-3.519-1.575-3.52-3.518v-0h-16.427c-0.001 1.943-1.577 3.518-3.52 3.518s-3.52-1.576-3.52-3.52 1.576-3.52 3.52-3.52h3.181l-6.775-19.358h-4.032c-0.972 0-1.76-0.788-1.76-1.76s0.788-1.76 1.76-1.76v0h5.28c0.768 0 1.414 0.495 1.655 1.18l0.006-0.002 1.024 2.929h26.061c0.971 0.002 1.757 0.789 1.757 1.76 0 0.261-0.057 0.509-0.159 0.732l0.005-0.011zM11.386 8.853l3.253 9.295 15.123-1.009 3.729-8.286h-22.106z"></path>
</svg>
