<svg aria-hidden="true" style="position: absolute; width: 0; height: 0; overflow: hidden;" version="1.1" xmlns="http://www.w3.org/2000/svg" xmlns:xlink="http://www.w3.org/1999/xlink">
<defs>
<symbol id="book" viewBox="0 0 64 32">
<title>book</title>
<path d="M6.627 5.523l-3.087 1.277c-0.039 0.017-0.082 0.026-0.127 0.026s-0.088-0.009-0.127-0.026l-3.087-1.277c-0.117-0.048-0.199-0.162-0.199-0.296v-4.907c0-0.177 0.143-0.32 0.32-0.32 0.043 0 0.085 0.009 0.122 0.024h0l0 0c0.001 0 0.002 0.001 0.003 0.001l2.968 1.228 2.968-1.228c0.001-0 0.002-0.001 0.003-0.001l0.001-0c0.038-0.016 0.079-0.024 0.122-0.024 0.177 0 0.32 0.143 0.32 0.32v4.907c0 0.134-0.083 0.249-0.199 0.296zM3.093 1.814l-2.453-1.015v4.214l2.453 1.015v-4.214zM6.187 0.799l-2.453 1.015v4.214l2.453-1.015v-4.214zM4.241 2.269l1.173-0.533c0.040-0.018 0.085-0.029 0.132-0.029 0.177 0 0.32 0.143 0.32 0.32 0 0.13-0.077 0.241-0.188 0.291v0l-1.173 0.533c-0.041 0.019-0.085 0.029-0.132 0.029-0.177 0-0.32-0.143-0.32-0.32 0-0.13 0.077-0.241 0.188-0.291zM4.241 3.442v0l1.173-0.533c0.040-0.018 0.085-0.029 0.132-0.029 0.177 0 0.32 0.143 0.32 0.32 0 0.13-0.077 0.241-0.188 0.291l-1.173 0.533c-0.041 0.018-0.085 0.029-0.132 0.029-0.177 0-0.32-0.143-0.32-0.32 0-0.13 0.077-0.241 0.188-0.291zM4.241 4.615v0l1.173-0.533c0.040-0.018 0.085-0.029 0.132-0.029 0.177 0 0.32 0.143 0.32 0.32 0 0.13-0.077 0.241-0.188 0.291v0l-1.173 0.533c-0.041 0.019-0.085 0.029-0.132 0.029-0.177 0-0.32-0.143-0.32-0.32 0-0.13 0.077-0.241 0.188-0.291zM1.28 1.707c0.047 0 0.092 0.010 0.132 0.029v0l1.173 0.533c0.111 0.050 0.188 0.162 0.188 0.291 0 0.177-0.143 0.32-0.32 0.32-0.047 0-0.092-0.010-0.132-0.029v0l-1.173-0.533c-0.111-0.050-0.188-0.162-0.188-0.291 0-0.177 0.143-0.32 0.32-0.32zM1.28 2.88c0.047 0 0.092 0.010 0.132 0.029v0l1.173 0.533c0.111 0.050 0.188 0.162 0.188 0.291 0 0.177-0.143 0.32-0.32 0.32-0.047 0-0.092-0.010-0.132-0.029v0l-1.173-0.533c-0.111-0.050-0.188-0.162-0.188-0.291 0-0.177 0.143-0.32 0.32-0.32zM1.28 4.053c0.047 0 0.092 0.010 0.132 0.029v0l1.173 0.533c0.111 0.050 0.188 0.162 0.188 0.291 0 0.177-0.143 0.32-0.32 0.32-0.047 0-0.092-0.010-0.132-0.029v0l-1.173-0.533c-0.111-0.050-0.188-0.162-0.188-0.291 0-0.177 0.143-0.32 0.32-0.32z"></path>
</symbol>
<symbol id="clock" viewBox="0 0 64 32">
<title>clock</title>
<path d="M6.558 2.027c-0.338-0.788-0.97-1.421-1.758-1.758 0.213-0.168 0.482-0.269 0.774-0.269 0.692 0 1.253 0.561 1.253 1.253 0 0.292-0.101 0.561-0.269 0.774zM6.507 3.413c0 0.822-0.323 1.567-0.845 2.121l0.433 0.433c0.057 0.057 0.093 0.136 0.093 0.224 0 0.175-0.142 0.316-0.316 0.316-0.087 0-0.167-0.035-0.224-0.093l-0.465-0.465c-0.502 0.35-1.11 0.557-1.769 0.557-0.657 0-1.265-0.206-1.766-0.555l-0.461 0.461c-0.058 0.058-0.138 0.094-0.226 0.094-0.177 0-0.32-0.143-0.32-0.32 0-0.088 0.036-0.168 0.094-0.226l0.429-0.429c-0.521-0.554-0.843-1.298-0.843-2.118 0-1.708 1.385-3.093 3.093-3.093s3.093 1.385 3.093 3.093zM3.413 0.96c-1.355 0-2.453 1.098-2.453 2.453s1.098 2.453 2.453 2.453 2.453-1.098 2.453-2.453c0-1.355-1.098-2.453-2.453-2.453zM4.693 3.733h-1.28c-0.177 0-0.32-0.143-0.32-0.32v-1.707c0-0.177 0.143-0.32 0.32-0.32s0.32 0.143 0.32 0.32v1.386h0.96c0.177 0 0.32 0.143 0.32 0.32s-0.143 0.32-0.32 0.32zM0.275 2.070c-0.172-0.218-0.275-0.492-0.275-0.79 0-0.707 0.573-1.28 1.28-1.28 0.299 0 0.573 0.103 0.791 0.275-0.805 0.345-1.451 0.991-1.796 1.796z"></path>
</symbol>
<symbol id="desktop" viewBox="0 0 64 32">
<title>desktop</title>
<path d="M6.4 4.907h-2.027v0.533l0.427 0.427v0.107h-2.773v-0.107l0.427-0.427v-0.533h-2.027c-0.177 0-0.32-0.143-0.32-0.32v-4.266c0-0.177 0.143-0.32 0.32-0.32h5.973c0.177 0 0.32 0.143 0.32 0.32v4.266c0 0.177-0.143 0.32-0.32 0.32zM6.293 0.427h-5.76v3.627h5.76v-3.627zM2.773 1.92c0.088 0 0.168 0.036 0.226 0.094v0l0.2 0.2 0.627-0.627c0.058-0.058 0.138-0.094 0.226-0.094 0.177 0 0.32 0.143 0.32 0.32 0 0.088-0.036 0.168-0.094 0.226v0l-0.853 0.853c-0.058 0.058-0.138 0.094-0.226 0.094s-0.168-0.036-0.226-0.094v0l-0.427-0.427c-0.058-0.058-0.094-0.138-0.094-0.226 0-0.177 0.143-0.32 0.32-0.32z"></path>
</symbol>
<symbol id="digital" viewBox="0 0 64 32">
<title>digital</title>
<path d="M6.507 6.827h-6.187c-0.177 0-0.32-0.143-0.32-0.32v-6.187c0-0.177 0.143-0.32 0.32-0.32h6.187c0.177 0 0.32 0.143 0.32 0.32v6.187c0 0.177-0.143 0.32-0.32 0.32zM6.187 0.64h-5.547v5.547h5.547v-5.547zM1.387 0.96h1.173c0.177 0 0.32 0.143 0.32 0.32s-0.143 0.32-0.32 0.32v0h-0.96v0.96c0 0.177-0.143 0.32-0.32 0.32s-0.32-0.143-0.32-0.32v0-1.6h0.427zM0.96 4.267v0c0-0.177 0.143-0.32 0.32-0.32s0.32 0.143 0.32 0.32v0 0.96l0.96 0c0.177 0 0.32 0.143 0.32 0.32s-0.143 0.32-0.32 0.32v0h-1.6v-1.6zM4.267 0.96v0h1.6v1.6c0 0.177-0.143 0.32-0.32 0.32s-0.32-0.143-0.32-0.32v0-0.96h-0.96c-0.177 0-0.32-0.143-0.32-0.32s0.143-0.32 0.32-0.32zM4.267 5.227v-0h0.96v-0.96c0-0.177 0.143-0.32 0.32-0.32s0.32 0.143 0.32 0.32v0 1.6h-1.6c-0.177 0-0.32-0.143-0.32-0.32s0.143-0.32 0.32-0.32z"></path>
</symbol>
<symbol id="graph" viewBox="0 0 64 32">
<title>graph</title>
<path d="M6.507 6.827h-6.187c-0.177 0-0.32-0.143-0.32-0.32v-6.187c0-0.176 0.143-0.32 0.32-0.32h6.187c0.177 0 0.32 0.143 0.32 0.32v6.187c0 0.177-0.143 0.32-0.32 0.32zM6.187 0.64h-5.547v5.547h5.547v-5.547zM1.113 3.464v-0l0.853-0.533c0.049-0.030 0.106-0.047 0.167-0.047 0.066 0 0.128 0.020 0.179 0.055l0.001-0.002 1.415 0.943 1.629-1.15c0.053-0.039 0.118-0.062 0.189-0.062 0.177 0 0.32 0.143 0.32 0.32 0 0.107-0.052 0.201-0.133 0.259h0l-1.814 1.28c-0.052 0.038-0.117 0.061-0.187 0.061-0.068 0-0.132-0.022-0.184-0.058l-1.42-0.947-0.669 0.418c-0.051 0.035-0.114 0.056-0.181 0.056-0.177 0-0.32-0.143-0.32-0.32 0-0.115 0.061-0.216 0.153-0.273z"></path>
</symbol>
<symbol id="home" viewBox="0 0 64 32">
<title>home</title>
<path d="M6.827 3.52c0 0.177-0.143 0.32-0.32 0.32-0.084 0-0.16-0.033-0.218-0.086l-0.001 0.001-2.875-2.875-2.869 2.868c-0.058 0.057-0.137 0.092-0.225 0.092-0.177 0-0.32-0.143-0.32-0.32 0-0.091 0.038-0.172 0.098-0.231l3.084-3.085c0.058-0.060 0.14-0.098 0.231-0.098v0 0c0 0 0 0 0 0 0.006 0 0.011 0 0.017 0 0.001 0 0.002 0 0.003 0 0.005 0 0.010 0.001 0.014 0.001 0 0 0 0 0.001 0 0.078 0.009 0.148 0.045 0.199 0.1l0-0 1.259 1.259v-0.294c0-0.177 0.143-0.32 0.32-0.32s0.32 0.143 0.32 0.32v0.934l1.194 1.194-0.001 0.001c0.053 0.057 0.087 0.133 0.087 0.218zM6.187 4.053v2.24c0 0.177-0.143 0.32-0.32 0.32h-0.64v-2.56h-1.28v2.56h-2.987c-0.177 0-0.32-0.143-0.32-0.32v-2.24l2.773-2.773 2.773 2.773zM2.88 4.053h-1.28v1.28h1.28v-1.28z"></path>
</symbol>
</defs>
</svg>
